<?xml version="1.0" encoding="UTF-8" standalone="no"?>
<!-- Generator: Adobe Illustrator 18.0.0, SVG Export Plug-In . SVG Version: 6.00 Build 0)  -->

<svg
   xmlns:dc="http://purl.org/dc/elements/1.1/"
   xmlns:cc="http://creativecommons.org/ns#"
   xmlns:rdf="http://www.w3.org/1999/02/22-rdf-syntax-ns#"
   xmlns:svg="http://www.w3.org/2000/svg"
   xmlns="http://www.w3.org/2000/svg"
   xmlns:sodipodi="http://sodipodi.sourceforge.net/DTD/sodipodi-0.dtd"
   xmlns:inkscape="http://www.inkscape.org/namespaces/inkscape"
   version="1.1"
   id="Слой_1"
   x="0px"
   y="0px"
   viewBox="0 0 286.60641 191.32101"
   enable-background="new 0 0 196.3 191.4"
   xml:space="preserve"
   inkscape:version="0.91 r13725"
   sodipodi:docname="bee-positive.svg"
   width="286.60641"
   height="191.321"><metadata
     id="metadata74"><rdf:RDF><cc:Work
         rdf:about=""><dc:format>image/svg+xml</dc:format><dc:type
           rdf:resource="http://purl.org/dc/dcmitype/StillImage" /><dc:title></dc:title></cc:Work></rdf:RDF></metadata><defs
     id="defs72" /><sodipodi:namedview
     pagecolor="#ffffff"
     bordercolor="#666666"
     borderopacity="1"
     objecttolerance="10"
     gridtolerance="10"
     guidetolerance="10"
     inkscape:pageopacity="0"
     inkscape:pageshadow="2"
     inkscape:window-width="1920"
     inkscape:window-height="1018"
     id="namedview70"
     showgrid="false"
     inkscape:zoom="2.4660398"
     inkscape:cx="-56.26156"
     inkscape:cy="66.800594"
     inkscape:window-x="-8"
     inkscape:window-y="-8"
     inkscape:window-maximized="1"
     inkscape:current-layer="Слой_1"
     fit-margin-top="0"
     fit-margin-left="0"
     fit-margin-right="0"
     fit-margin-bottom="0" /><path
     d="m 217.16194,74.421003 7.7,-29.2 0.3,-1.1 c 4.4,-16.7 21.5,-26.5 38.2,-21.8 16.7,4.8 26.6,22.2 22.2,39 -4.4,16.8 -21.5,26.5 -38.2,21.8 l -30.2,-8.7 z"
     id="path3"
     inkscape:connector-curvature="0"
     style="fill:#ffffff" /><path
     d="m 248.36194,79.021003 c 14.5,4.2 29.4,-4.3 33.3,-19 3.9,-14.6 -4.8,-29.8 -19.4,-34 -14.6,-4.1 -29.5,4.4 -33.3,19 l -0.3,1.2 -6.6,25.4 26.3,7.4 0,0 z"
     id="path5"
     inkscape:connector-curvature="0"
     style="fill:#96be2d" /><path
     d="m 217.16194,74.421003 -15.1,-26.5 -0.6,-1 c -8.6,-15.2 -3.6,-34.4 11.3,-42.9 14.9,-8.5 33.9,-3.10000002 42.6,12.2 8.7,15.2 3.6,34.4 -11.2,42.9 l -27,15.3 z"
     id="path7"
     inkscape:connector-curvature="0"
     style="fill:#ffffff" /><path
     d="m 242.16194,55.521003 c 13,-7.4 17.4,-24.2 9.8,-37.5 -7.5,-13.2 -24.2,-18.00000002 -37.2,-10.6 -13,7.4 -17.5,24.2 -9.9,37.5 l 0.6,1 13.1,23 23.4,-13.4 0.2,0 z"
     id="path9"
     inkscape:connector-curvature="0"
     style="fill:#f6a120" /><path
     d="m 223.46194,66.221003 5.5,-21.1 c 3.2,-12.1 14,-20 25.9,-20 2.9,11.7 -1.6,23.9 -12.1,30.1 l -19.3,11 z"
     id="path11"
     inkscape:connector-curvature="0"
     style="fill:#ffdf43" /><path
     d="m 227.36194,73.121003 18.7,-10.7 c 10.8,-6.2 24.1,-4 32.6,4.6 -6.1,10.3 -18.4,15.5 -30.5,12.1 l -20.8,-6 z"
     id="path13"
     inkscape:connector-curvature="0"
     style="fill:#4ba23d" /><g
     id="g15"
     transform="translate(90.261931,-0.07899702)"><g
       id="g17"><path
         d="M 43.7,63.6 C 44.3,57.1 44.6,49.8 41,44.1 37.6,39 31.1,39 25.8,40 c -0.2,0 -1.3,0.3 -1.1,0.6 1.5,4.9 3.9,3.3 6.9,0.3 0.4,-0.4 -0.6,-0.3 -0.7,-0.3 -1.3,0.2 -2.5,0.5 -3.8,0.6 -0.8,0.1 -1.7,0.9 -0.3,0.8 -1.1,0.1 2.6,-0.4 2.1,0 -1.7,1.7 -2,-1.1 -2.3,-1.9 -0.4,0.2 -0.8,0.4 -1.1,0.6 15.5,-3 17.4,11.6 16.2,23.4 0,0.3 1.9,0.1 2,-0.5 l 0,0 z"
         id="path19"
         inkscape:connector-curvature="0" /></g></g><radialGradient
     id="SVGID_1_"
     cx="85.927696"
     cy="127.5902"
     r="70.966301"
     fx="55.868599"
     fy="96.279701"
     gradientUnits="userSpaceOnUse"
     gradientTransform="translate(90.261931,-0.07899702)"><stop
       offset="0"
       style="stop-color:#FFFFFF"
       id="stop22" /><stop
       offset="0.1383"
       style="stop-color:#9ffbc3;stop-opacity:1"
       id="stop24" /><stop
       offset="0.3913"
       style="stop-color:#97f35b;stop-opacity:1"
       id="stop26" /><stop
       offset="0.567"
       style="stop-color:#5cef1a;stop-opacity:1"
       id="stop28" /><stop
       offset="0.6493"
       style="stop-color:#3aed00;stop-opacity:1"
       id="stop30" /><stop
       offset="1"
       style="stop-color:#23c800;stop-opacity:1"
       id="stop32" /></radialGradient><ellipse
     stroke-miterlimit="10"
     cx="172.36192"
     cy="122.42101"
     rx="73.5"
     ry="68.400002"
     id="ellipse34"
     style="fill:url(#SVGID_1_);stroke:#000000;stroke-miterlimit:10" /><path
     stroke-miterlimit="10"
     d="m 161.76194,69.421003 c -8.9,0 -16.8,4 -22,10.3 -3.9,-6.2 -11,-10.3 -19.1,-10.3 -12.2,0 -22.300009,9.6 -22.300009,21.5 0,11.899997 10.000009,21.499997 22.400009,21.499997 5.7,0 10.9,-2.1 14.9,-5.5 4.1,10.1 14.3,17.3 26.2,17.3 15.5,0 28.2,-12.3 28.2,-27.399997 0,-15.1 -12.7,-27.4 -28.3,-27.4 z"
     id="path36"
     inkscape:connector-curvature="0"
     style="fill:#ffffff;stroke:#000000;stroke-miterlimit:10" /><ellipse
     stroke-miterlimit="10"
     cx="124.56193"
     cy="90.521004"
     rx="4.0999999"
     ry="4.4000001"
     id="ellipse38"
     style="stroke:#000000;stroke-miterlimit:10" /><ellipse
     stroke-miterlimit="10"
     cx="153.26193"
     cy="90.521004"
     rx="4.0999999"
     ry="4.4000001"
     id="ellipse40"
     style="stroke:#000000;stroke-miterlimit:10" /><g
     id="g42"
     transform="translate(92.289473,9.8559603)"><g
       id="g44"><path
         d="m 29.745756,126.38999 c 5.901562,5.20705 10.050253,13.09709 23.905672,14.58628 19.54341,-3.77682 21.423926,-20.17429 19.529179,-20.73274 -24.360536,7.76817 -38.459812,1.23532 -53.562915,-5.5537 z"
         id="path46"
         inkscape:connector-curvature="0"
         sodipodi:nodetypes="ccccc" /></g></g><g
     id="g48"
     transform="translate(90.261931,-0.07899702)"><g
       id="g50"><path
         d="M 1.9,75.2 C 2.8,72 4.9,69.7 7.6,67.8 8.4,67.2 6.5,67.4 6.1,67.7 3.3,69.6 0.9,72.2 0,75.5 -0.1,76 1.8,75.7 1.9,75.2 l 0,0 z"
         id="path52"
         inkscape:connector-curvature="0" /></g></g><g
     id="g54"
     transform="translate(90.261931,-0.07899702)"><g
       id="g56"><path
         d="m 100.3,64.1 c 3.8,2 6.9,4.7 9.2,8.3 0.4,0.6 2.3,0 1.8,-0.8 -2.3,-3.7 -5.5,-6.6 -9.4,-8.6 -0.8,-0.3 -2.5,0.6 -1.6,1.1 l 0,0 z"
         id="path58"
         inkscape:connector-curvature="0" /></g></g><path
     stroke-miterlimit="10"
     d="m 156.36194,57.421003 c -3.4,0 -6.7,0.3 -9.9,0.8 -7.9,2.7 -15.2,6.6 -21.6,11.6 7.9,-4.3 17.1,-6.7 27,-6.7 29.6,0 53.6,22.1 53.6,49.299997 0,27.2 -24,49.3 -53.6,49.3 -26.9,0 -49.20001,-18.3 -53.000009,-42.1 l 0,1.5 c 3.999999,27.1 28.200009,47.9 57.500009,47.9 32.1,0 58.1,-25 58.1,-55.8 0.1,-30.799997 -26,-55.799997 -58.1,-55.799997 z"
     id="path60"
     inkscape:connector-curvature="0"
     style="stroke:#000000;stroke-miterlimit:10" /><g
     id="g62"
     transform="translate(90.261931,-0.07899702)"><g
       id="g64"><path
         d="M 59.7,61.2 C 59.2,55.8 59,50.3 60.8,45.1 c 1,-3 3.2,-5.4 6.2,-6.5 1.9,-0.7 3.9,-0.6 5.9,-0.4 1.4,0.8 1.8,1.5 1.1,2.1 -0.8,-0.6 -1.6,-1.4 -2.3,-2.1 -0.4,0.4 -0.8,0.7 -1.2,1.1 1.3,0.2 2.5,0.5 3.8,0.6 0.9,0.1 2,-1.1 0.7,-1.3 -1.3,-0.2 -2.5,-0.5 -3.8,-0.6 -0.4,0 -1.8,0.5 -1.2,1.1 3.3,3.3 5.4,3.7 6.9,-1.1 0.1,-0.2 -0.2,-0.5 -0.4,-0.5 -5.6,-1.1 -12.4,-0.9 -15.9,4.5 -3.7,5.8 -3.4,13.2 -2.8,19.8 0,0.8 1.9,0.3 1.9,-0.6 l 0,0 z"
         id="path66"
         inkscape:connector-curvature="0" /></g></g><path
     stroke-miterlimit="10"
     d="m 239.46194,106.821 c 0,-1.9 -1.6,-8.199997 -1.7,-9.999997 -4.4,-14.3 -10.3,-20.3 -22.7,-29.1 11,12 15.9,25.4 15.9,42.399997 0,37.8 -32.9,68.4 -73.5,68.4 -14.9,0 -27.8,-3.6 -39.4,-10.7 9.2,9 23.9,17 32.8,18.1 3.7,0.5 5.2,0.6 7.6,0.6 44.7,0 81,-35.7 81,-79.7 z"
     id="path68"
     inkscape:connector-curvature="0"
     style="stroke:#000000;stroke-miterlimit:10" /><path
     style="fill:none;fill-opacity:1;stroke:#000000;stroke-width:1.79999995;stroke-linejoin:round;stroke-miterlimit:4;stroke-dasharray:none;stroke-opacity:1"
     d="m 86.867776,73.917937 c 0,11.981652 -1.16156,44.726463 22.284034,61.499593 8.98906,6.43083 -52.587234,-14.05511 -65.267924,-18.11019 C 21.272546,110.07659 0.89998472,97.881236 0.89998472,73.917937 c 0,-23.963307 19.24455128,-43.389405 42.98390128,-43.389404 23.73935,5e-6 42.98389,19.426101 42.98389,43.389404 z"
     id="path4168"
     inkscape:connector-curvature="0"
     sodipodi:nodetypes="ssssss" /><text
     xml:space="preserve"
     style="font-style:normal;font-weight:normal;font-size:40px;line-height:125%;font-family:sans-serif;letter-spacing:0px;word-spacing:0px;fill:#000000;fill-opacity:1;stroke:none;stroke-width:1px;stroke-linecap:butt;stroke-linejoin:miter;stroke-opacity:1"
     x="36.935143"
     y="88.461174"
     id="ranking"
     sodipodi:linespacing="125%"
     inkscape:label="#text4187"><tspan
       sodipodi:role="line"
       id="tspan4189"
       x="36.935143"
       y="88.461174">0</tspan></text>
</svg>