<?xml version="1.0" encoding="UTF-8" standalone="no"?>
<!-- Generator: Adobe Illustrator 18.0.0, SVG Export Plug-In . SVG Version: 6.00 Build 0)  -->

<svg
   xmlns:dc="http://purl.org/dc/elements/1.1/"
   xmlns:cc="http://creativecommons.org/ns#"
   xmlns:rdf="http://www.w3.org/1999/02/22-rdf-syntax-ns#"
   xmlns:svg="http://www.w3.org/2000/svg"
   xmlns="http://www.w3.org/2000/svg"
   xmlns:sodipodi="http://sodipodi.sourceforge.net/DTD/sodipodi-0.dtd"
   xmlns:inkscape="http://www.inkscape.org/namespaces/inkscape"
   version="1.1"
   id="Слой_1"
   x="0px"
   y="0px"
   viewBox="0 0 196.3 191.4"
   enable-background="new 0 0 196.3 191.4"
   xml:space="preserve"
   inkscape:version="0.91 r13725"
   sodipodi:docname="bee-neutral.svg"><metadata
     id="metadata74"><rdf:RDF><cc:Work
         rdf:about=""><dc:format>image/svg+xml</dc:format><dc:type
           rdf:resource="http://purl.org/dc/dcmitype/StillImage" /><dc:title /></cc:Work></rdf:RDF></metadata><defs
     id="defs72" /><sodipodi:namedview
     pagecolor="#ffffff"
     bordercolor="#666666"
     borderopacity="1"
     objecttolerance="10"
     gridtolerance="10"
     guidetolerance="10"
     inkscape:pageopacity="0"
     inkscape:pageshadow="2"
     inkscape:window-width="1920"
     inkscape:window-height="1018"
     id="namedview70"
     showgrid="false"
     inkscape:zoom="2.4660398"
     inkscape:cx="-5.711206"
     inkscape:cy="50.336208"
     inkscape:window-x="-8"
     inkscape:window-y="-8"
     inkscape:window-maximized="1"
     inkscape:current-layer="Слой_1" /><path
     fill="#FFFFFF"
     d="M126.9,74.5l7.7-29.2l0.3-1.1c4.4-16.7,21.5-26.5,38.2-21.8c16.7,4.8,26.6,22.2,22.2,39  c-4.4,16.8-21.5,26.5-38.2,21.8L126.9,74.5z"
     id="path3" /><path
     fill="#96BE2D"
     d="M158.1,79.1c14.5,4.2,29.4-4.3,33.3-19c3.9-14.6-4.8-29.8-19.4-34c-14.6-4.1-29.5,4.4-33.3,19l-0.3,1.2  l-6.6,25.4L158.1,79.1L158.1,79.1z"
     id="path5" /><path
     fill="#FFFFFF"
     d="M126.9,74.5l-15.1-26.5l-0.6-1c-8.6-15.2-3.6-34.4,11.3-42.9c14.9-8.5,33.9-3.1,42.6,12.2  c8.7,15.2,3.6,34.4-11.2,42.9L126.9,74.5z"
     id="path7" /><path
     fill="#F6A120"
     d="M151.9,55.6c13-7.4,17.4-24.2,9.8-37.5c-7.5-13.2-24.2-18-37.2-10.6c-13,7.4-17.5,24.2-9.9,37.5l0.6,1  l13.1,23l23.4-13.4L151.9,55.6z"
     id="path9" /><path
     fill="#FFDF43"
     d="M133.2,66.3l5.5-21.1c3.2-12.1,14-20,25.9-20c2.9,11.7-1.6,23.9-12.1,30.1L133.2,66.3z"
     id="path11" /><path
     fill="#4BA23D"
     d="M137.1,73.2l18.7-10.7c10.8-6.2,24.1-4,32.6,4.6c-6.1,10.3-18.4,15.5-30.5,12.1L137.1,73.2z"
     id="path13" /><g
     id="g15"><g
       id="g17"><path
         d="M43.7,63.6c0.6-6.5,0.9-13.8-2.7-19.5C37.6,39,31.1,39,25.8,40c-0.2,0-1.3,0.3-1.1,0.6c1.5,4.9,3.9,3.3,6.9,0.3    c0.4-0.4-0.6-0.3-0.7-0.3c-1.3,0.2-2.5,0.5-3.8,0.6c-0.8,0.1-1.7,0.9-0.3,0.8c-1.1,0.1,2.6-0.4,2.1,0c-1.7,1.7-2-1.1-2.3-1.9    c-0.4,0.2-0.8,0.4-1.1,0.6C41,37.7,42.9,52.3,41.7,64.1C41.7,64.4,43.6,64.2,43.7,63.6L43.7,63.6z"
         id="path19" /></g></g><radialGradient
     id="SVGID_1_"
     cx="85.9277"
     cy="127.5902"
     r="70.9663"
     fx="55.8686"
     fy="96.2797"
     gradientUnits="userSpaceOnUse"><stop
       offset="0"
       style="stop-color:#FFFFFF"
       id="stop22" /><stop
       offset="0.1383"
       style="stop-color:#FFFBC3"
       id="stop24" /><stop
       offset="0.3913"
       style="stop-color:#FFF35B"
       id="stop26" /><stop
       offset="0.567"
       style="stop-color:#FFEF1A"
       id="stop28" /><stop
       offset="0.6493"
       style="stop-color:#FFED00"
       id="stop30" /><stop
       offset="1"
       style="stop-color:#DEC800"
       id="stop32" /></radialGradient><ellipse
     fill="url(#SVGID_1_)"
     stroke="#000000"
     stroke-miterlimit="10"
     cx="82.1"
     cy="122.5"
     rx="73.5"
     ry="68.4"
     id="ellipse34" /><path
     fill="#FFFFFF"
     stroke="#000000"
     stroke-miterlimit="10"
     d="M71.5,69.5c-8.9,0-16.8,4-22,10.3c-3.9-6.2-11-10.3-19.1-10.3  C18.2,69.5,8.1,79.1,8.1,91s10,21.5,22.4,21.5c5.7,0,10.9-2.1,14.9-5.5c4.1,10.1,14.3,17.3,26.2,17.3c15.5,0,28.2-12.3,28.2-27.4  S87.1,69.5,71.5,69.5z"
     id="path36" /><ellipse
     stroke-miterlimit="10"
     cx="27.811863"
     cy="92.019279"
     rx="4.0999999"
     ry="4.4000001"
     id="ellipse38"
     style="stroke:#000000;stroke-miterlimit:10" /><ellipse
     stroke-miterlimit="10"
     cx="73.340469"
     cy="98.710167"
     rx="4.0999999"
     ry="4.4000001"
     id="ellipse40"
     style="stroke:#000000;stroke-miterlimit:10" /><g
     id="g42"
     transform="translate(2.0275423,9.9349573)"><g
       id="g44"><path
         d="m 27.718213,130.64783 c 5.901562,5.20705 12.077796,-0.89295 25.933215,0.59624 19.137902,-0.12725 23.04596,-3.14294 21.151213,-3.70139 -21.151213,3.70139 -47.989261,2.85736 -55.387703,-0.0793 z"
         id="path46"
         inkscape:connector-curvature="0"
         sodipodi:nodetypes="ccccc" /></g></g><path
     stroke="#000000"
     stroke-miterlimit="10"
     d="M66.1,57.5c-3.4,0-6.7,0.3-9.9,0.8C48.3,61,41,64.9,34.6,69.9  c7.9-4.3,17.1-6.7,27-6.7c29.6,0,53.6,22.1,53.6,49.3c0,27.2-24,49.3-53.6,49.3c-26.9,0-49.2-18.3-53-42.1v1.5  c4,27.1,28.2,47.9,57.5,47.9c32.1,0,58.1-25,58.1-55.8C124.3,82.5,98.2,57.5,66.1,57.5z"
     id="path60" /><g
     id="g62"><g
       id="g64"><path
         d="M59.7,61.2c-0.5-5.4-0.7-10.9,1.1-16.1c1-3,3.2-5.4,6.2-6.5c1.9-0.7,3.9-0.6,5.9-0.4c1.4,0.8,1.8,1.5,1.1,2.1    c-0.8-0.6-1.6-1.4-2.3-2.1c-0.4,0.4-0.8,0.7-1.2,1.1c1.3,0.2,2.5,0.5,3.8,0.6c0.9,0.1,2-1.1,0.7-1.3c-1.3-0.2-2.5-0.5-3.8-0.6    c-0.4,0-1.8,0.5-1.2,1.1c3.3,3.3,5.4,3.7,6.9-1.1c0.1-0.2-0.2-0.5-0.4-0.5c-5.6-1.1-12.4-0.9-15.9,4.5c-3.7,5.8-3.4,13.2-2.8,19.8    C57.8,62.6,59.7,62.1,59.7,61.2L59.7,61.2z"
         id="path66" /></g></g><path
     stroke="#000000"
     stroke-miterlimit="10"
     d="M149.2,106.9c0-1.9-1.6-8.2-1.7-10c-4.4-14.3-10.3-20.3-22.7-29.1  c11,12,15.9,25.4,15.9,42.4c0,37.8-32.9,68.4-73.5,68.4c-14.9,0-27.8-3.6-39.4-10.7c9.2,9,23.9,17,32.8,18.1  c3.7,0.5,5.2,0.6,7.6,0.6C112.9,186.6,149.2,150.9,149.2,106.9z"
     id="path68" /></svg>